<svg xmlns="http://www.w3.org/2000/svg" version="1.0" preserveAspectRatio="xMidYMid meet" viewBox="416.06 627.1 717.67 773.51">

<g transform="translate(0.000000,2360.000000) scale(0.100000,-0.100000)" fill="#000000" stroke="none">
<path d="M7935 17305 c-241 -56 -414 -155 -473 -272 -31 -59 -40 -129 -29 -211 l10 -71 -113 -118 c-62 -65 -119 -121 -126 -126 -18 -10 -69 66 -110 164 -34 84 -82 157 -133 202 -37 33 -37 34 49 147 31 41 62 85 68 97 15 28 15 76 0 91 -16 16 -93 15 -126 -2 -15 -8 -117 -48 -227 -90 -214 -80 -488 -191 -545 -221 -74 -38 -259 -167 -355 -246 -354 -296 -618 -661 -734 -1015 -52 -159 -70 -261 -75 -424 -4 -135 -4 -135 -55 -266 -29 -72 -59 -138 -69 -146 -9 -8 -55 -36 -102 -62 -202 -115 -365 -247 -432 -350 -33 -52 -38 -67 -38 -119 0 -117 70 -175 315 -258 l110 -37 1 -343 c2 -470 30 -691 115 -895 17 -40 28 -78 24 -83 -8 -14 -186 -150 -335 -257 -177 -126 -266 -217 -319 -324 -92 -190 -94 -413 -5 -600 68 -144 143 -217 279 -271 55 -22 74 -24 230 -23 152 0 182 3 280 28 159 40 276 85 389 148 181 101 290 193 442 374 52 62 98 115 102 118 5 3 33 -1 63 -7 l54 -12 7 -100 c23 -331 199 -578 547 -767 l51 -28 0 -132 c0 -73 4 -182 9 -243 6 -60 12 -232 16 -381 l6 -271 -43 -11 c-24 -6 -119 -28 -213 -47 -93 -20 -188 -40 -210 -45 -22 -5 -85 -19 -140 -31 -55 -12 -108 -28 -117 -37 -20 -17 -23 -53 -8 -83 12 -22 76 -26 139 -9 38 10 309 70 351 77 14 2 43 8 65 13 22 5 93 21 157 35 64 15 123 33 129 42 9 10 12 65 10 201 -1 102 -4 189 -6 192 -6 9 -27 672 -22 677 3 2 32 -3 65 -12 234 -60 406 -59 641 5 92 26 237 93 319 149 196 133 321 322 378 571 l15 69 65 -53 c81 -67 141 -99 257 -139 l92 -32 6 -675 c4 -371 10 -778 13 -905 6 -221 7 -231 28 -248 14 -12 29 -16 42 -11 22 7 330 17 1011 32 246 6 400 13 417 20 17 7 30 22 34 38 6 22 2 32 -22 52 -28 25 -29 25 -174 18 -150 -7 -993 -29 -1135 -30 l-80 -1 -2 230 c-1 127 -7 502 -13 834 -7 383 -7 608 -1 614 6 6 40 5 93 -3 102 -15 497 -15 639 -1 674 70 1256 263 1596 528 204 159 279 330 241 552 -37 214 -123 431 -367 919 -132 265 -236 502 -274 627 -44 143 -46 131 26 226 35 46 80 110 100 141 34 53 43 60 139 106 126 61 207 125 275 220 62 86 88 152 109 275 45 258 -47 530 -236 701 -167 149 -541 316 -787 350 -51 7 -96 15 -99 18 -3 3 13 34 35 68 50 77 79 152 96 250 45 260 14 481 -82 572 -103 98 -270 65 -331 -66 -28 -59 -56 -214 -77 -421 -19 -194 -50 -336 -96 -435 -30 -66 -34 -70 -97 -100 -36 -17 -87 -34 -113 -37 -46 -5 -47 -5 -76 38 -37 53 -114 127 -172 163 l-41 27 57 67 c117 135 161 231 170 367 12 177 -70 331 -238 443 -95 64 -270 123 -408 137 -50 6 -87 19 -166 61 -201 105 -311 134 -503 133 -96 0 -152 -6 -227 -24z m462 -109 c94 -30 113 -46 55 -46 -110 0 -348 -48 -504 -101 -85 -29 -238 -107 -322 -163 -38 -25 -72 -46 -77 -46 -17 0 -21 50 -9 101 10 39 24 63 55 95 74 74 275 156 450 185 96 15 262 4 352 -25z m-1513 -164 c-9 -16 -24 -39 -34 -52 l-17 -23 -52 18 c-35 13 -48 22 -41 29 13 13 118 53 143 55 17 1 17 -1 1 -27z m1879 -15 c25 -15 73 -53 107 -83 78 -73 87 -104 60 -205 -72 -269 -82 -315 -88 -427 -7 -113 -8 -116 -32 -123 -57 -16 -112 -9 -174 21 -33 16 -88 34 -122 38 -51 7 -92 25 -250 114 -331 184 -380 203 -615 233 -45 6 -46 6 -62 59 -9 29 -17 57 -17 62 0 5 22 26 48 45 264 198 611 302 978 296 111 -3 124 -5 167 -30z m345 -68 c114 -55 208 -146 242 -234 60 -156 13 -310 -149 -487 -63 -68 -56 -66 -186 -50 l-60 7 -3 80 c-4 100 9 181 60 364 44 156 48 234 14 286 -9 14 -23 36 -32 50 -16 24 -15 25 5 25 12 0 61 -19 109 -41z m-2460 -49 c35 -6 81 -18 102 -26 33 -14 42 -23 51 -58 9 -32 34 -64 112 -143 99 -101 100 -103 105 -156 2 -30 -1 -63 -7 -75 -6 -12 -71 -51 -152 -92 -77 -39 -170 -89 -206 -112 -71 -43 -73 -43 -173 -14 -75 21 -176 20 -290 -5 -52 -11 -102 -21 -110 -22 -10 -1 -18 16 -26 60 -14 76 -52 138 -99 160 -19 9 -35 21 -35 26 0 30 147 187 260 276 137 109 241 166 330 181 64 11 68 11 138 0z m3529 -22 c58 -64 77 -155 70 -324 -3 -71 -12 -156 -21 -189 -37 -134 -110 -246 -196 -300 -40 -25 -158 -57 -165 -45 -3 5 3 28 13 52 35 82 63 237 82 455 18 212 47 326 92 357 34 24 100 21 125 -6z m-2689 -281 c2 -11 -6 -19 -23 -23 -35 -9 -42 1 -20 26 21 23 38 22 43 -3z m-1710 -162 c-18 -32 -74 -73 -84 -62 -5 5 86 97 97 97 4 0 -1 -16 -13 -35z m1761 -15 c10 -32 15 -95 15 -220 1 -154 -2 -185 -22 -255 -13 -44 -36 -105 -51 -135 l-28 -55 -78 -3 -77 -3 9 88 c13 138 6 279 -18 384 -33 144 -34 161 -10 183 27 25 166 66 211 63 31 -2 36 -6 49 -47z m329 11 c119 -43 402 -195 389 -208 -3 -3 -45 -18 -93 -35 -254 -85 -399 -217 -420 -383 -11 -79 -14 -82 -86 -77 -87 6 -92 12 -62 79 74 166 92 412 47 636 l-6 30 74 -6 c45 -3 106 -17 157 -36z m-1958 -111 c27 -15 59 -140 42 -166 -9 -13 -224 -125 -230 -120 -7 8 37 128 76 206 28 56 43 77 62 81 14 4 26 7 28 8 2 1 12 -3 22 -9z m1067 -67 c-3 -21 -17 -87 -31 -147 -14 -60 -31 -155 -37 -210 -6 -56 -15 -104 -18 -108 -3 -4 -46 1 -95 10 l-89 18 -2 89 c-1 66 -8 105 -24 149 -20 49 -21 60 -10 71 16 15 289 164 303 165 5 0 6 -17 3 -37z m-1362 -187 c-19 -65 -35 -124 -35 -132 0 -8 -39 -56 -87 -107 -93 -99 -217 -260 -265 -344 -33 -58 -58 -85 -58 -61 0 30 71 222 116 314 72 148 157 269 262 374 52 52 96 90 99 84 2 -6 -12 -64 -32 -128z m1584 67 c14 -74 13 -232 -2 -308 -11 -53 -16 -60 -37 -60 -34 0 -43 46 -37 180 4 93 15 151 42 233 9 27 23 9 34 -45z m-781 -3 c45 0 41 -21 -12 -65 -25 -20 -67 -68 -93 -107 -43 -62 -49 -78 -53 -136 -5 -65 -6 -67 -40 -84 -63 -30 -74 -25 -99 46 -23 67 -50 199 -51 253 0 26 6 35 28 46 53 28 219 59 267 51 11 -2 35 -4 53 -4z m2026 0 c14 -5 26 -13 26 -18 0 -5 -44 -26 -97 -47 -199 -77 -355 -179 -463 -304 -61 -70 -74 -67 -64 14 19 146 128 243 361 321 124 42 192 51 237 34z m546 -75 c-12 -15 -30 -12 -30 6 0 5 10 9 21 9 18 0 19 -2 9 -15z m-2404 -50 c8 -19 14 -66 14 -105 0 -83 2 -82 -130 -99 -72 -9 -87 -9 -100 4 -13 14 -12 20 9 60 27 51 151 175 176 175 9 0 22 -15 31 -35z m2659 -10 c65 -42 103 -83 84 -90 -15 -5 -235 48 -247 60 -4 4 10 22 31 41 44 40 54 39 132 -11z m-520 -5 c76 -35 86 -42 74 -56 -32 -39 -643 -309 -747 -330 -26 -5 -38 -2 -57 16 -14 13 -25 30 -25 37 0 24 100 122 177 173 40 27 106 65 146 85 90 44 283 114 319 114 14 1 65 -17 113 -39z m-2749 -50 c13 -90 28 -147 56 -219 l22 -54 -21 -16 c-11 -9 -48 -36 -82 -60 -77 -55 -192 -170 -251 -249 -25 -34 -49 -60 -55 -58 -17 5 -9 377 9 475 9 46 16 85 16 87 0 1 27 23 59 48 71 55 200 127 221 123 11 -1 18 -24 26 -77z m4414 -21 c188 -52 413 -150 546 -238 187 -124 294 -328 294 -560 0 -155 -44 -283 -132 -385 -45 -53 -154 -129 -170 -120 -5 3 -7 23 -3 43 9 55 -9 119 -45 156 -72 74 -216 71 -287 -6 -36 -39 -71 -128 -85 -219 l-14 -85 -50 0 -49 0 4 106 c4 131 -20 241 -85 378 -55 118 -113 199 -201 281 -72 68 -218 155 -308 184 -68 22 -209 46 -267 46 -41 0 -48 3 -48 19 0 36 12 51 91 116 43 36 100 92 126 125 44 55 54 62 124 85 41 14 102 40 135 57 32 17 75 35 94 39 59 14 248 1 330 -22z m-1258 -82 c48 -14 125 -30 172 -37 47 -7 83 -17 80 -22 -3 -4 -48 -44 -100 -88 -94 -79 -96 -80 -124 -65 -41 21 -97 90 -131 163 -30 63 -30 88 0 79 9 -3 55 -16 103 -30z m-231 -19 c17 -66 94 -190 146 -238 30 -28 53 -54 51 -59 -2 -6 -46 -56 -99 -113 -112 -121 -263 -254 -368 -327 -73 -50 -104 -61 -116 -41 -11 17 -195 172 -337 284 -130 102 -149 124 -130 152 4 7 95 46 202 87 216 84 411 170 540 241 47 25 89 44 94 43 6 -2 13 -15 17 -29z m-3369 -347 c-2 -134 1 -258 7 -299 10 -66 9 -75 -17 -149 l-27 -78 -120 -7 c-113 -6 -121 -5 -143 15 -24 22 -82 131 -82 154 0 23 115 238 185 345 80 121 176 247 190 248 6 0 9 -80 7 -229z m1260 205 c399 -76 698 -382 789 -806 30 -141 24 -360 -14 -501 -99 -375 -372 -676 -714 -788 -175 -57 -376 -65 -548 -21 -110 28 -264 106 -361 183 -203 162 -346 429 -375 702 -36 341 78 676 316 924 157 164 371 277 595 314 60 10 244 6 312 -7z m558 -36 c12 -7 11 -13 -10 -35 -26 -28 -57 -30 -73 -3 -22 35 41 65 83 38z m385 -28 c38 -11 67 -74 44 -96 -8 -8 -80 -35 -161 -62 l-147 -48 -32 29 c-56 54 -56 58 8 131 l58 66 100 -6 c55 -3 113 -10 130 -14z m1615 -121 c0 -10 -172 -72 -179 -65 -3 3 7 17 22 31 18 18 42 29 74 34 72 10 83 10 83 0z m-1450 -97 c0 -8 -4 -12 -10 -9 -5 3 -10 10 -10 16 0 5 5 9 10 9 6 0 10 -7 10 -16z m-113 -75 c7 -35 10 -72 7 -81 -6 -19 -99 -101 -125 -111 -10 -3 -25 3 -37 16 -30 34 -93 160 -84 169 11 11 204 77 216 74 5 -1 15 -31 23 -67z m1958 41 c202 -63 359 -193 453 -376 66 -130 95 -234 95 -339 -1 -44 -6 -92 -11 -107 -11 -26 -13 -26 -69 -21 -88 8 -104 19 -128 88 -96 274 -312 479 -604 574 -51 17 -100 31 -107 31 -8 0 -14 7 -14 15 0 23 67 152 82 159 30 13 234 -3 303 -24z m-465 -32 c0 -18 -38 -80 -58 -95 -21 -17 -122 -17 -122 0 0 19 139 105 173 107 4 0 7 -6 7 -12z m-1202 -60 c179 -139 332 -270 332 -284 0 -17 -32 -34 -65 -34 -33 0 -172 70 -250 125 -63 45 -155 137 -155 155 0 15 51 90 62 90 4 0 39 -23 76 -52z m-158 -184 c30 -31 95 -83 144 -115 88 -57 89 -58 60 -66 -78 -21 -115 -11 -230 59 -60 37 -113 74 -119 82 -8 13 0 25 35 56 25 21 47 39 50 40 3 0 30 -25 60 -56z m1415 2 c491 -76 796 -564 629 -1009 -56 -147 -186 -298 -323 -375 -152 -84 -336 -123 -495 -103 -415 53 -724 378 -726 763 -1 231 110 451 295 583 188 134 379 178 620 141z m-1600 -151 l30 -25 -35 2 c-28 2 -36 8 -38 26 -4 28 6 28 43 -3z m-2275 -120 c0 -30 -24 -33 -52 -8 -27 24 -22 33 17 33 31 0 35 -3 35 -25z m2918 -11 c27 -18 28 -35 4 -64 l-18 -22 -55 23 c-63 27 -99 48 -99 59 0 11 91 29 120 23 14 -2 35 -11 48 -19z m-3045 -75 l107 -70 0 -80 c0 -43 -3 -79 -8 -79 -17 0 -51 32 -104 97 -85 104 -139 203 -110 203 4 0 56 -32 115 -71z m2825 -33 c133 -66 167 -87 165 -102 -4 -48 -16 -105 -23 -109 -12 -7 -204 62 -285 104 -44 22 -116 50 -160 62 -44 11 -91 24 -105 28 -22 6 -25 12 -28 60 l-3 54 136 -7 135 -7 168 -83z m-3033 12 c40 -81 149 -222 218 -281 117 -100 124 -108 137 -172 l12 -60 -78 -152 c-44 -84 -82 -153 -86 -153 -4 0 -32 22 -63 49 -69 61 -142 87 -280 102 -55 6 -104 15 -109 19 -9 9 16 242 40 353 8 40 29 125 46 190 30 113 32 119 67 137 56 30 68 26 96 -32z m5676 31 c26 -26 23 -80 -8 -151 -21 -45 -22 -46 -91 -62 -39 -9 -76 -16 -81 -16 -17 0 -13 77 6 138 24 77 60 112 112 112 28 0 47 -6 62 -21z m-5944 -112 c-23 -61 -87 -427 -87 -500 0 -19 -6 -37 -12 -40 -7 -2 -49 8 -93 24 -174 61 -245 105 -245 152 0 58 104 172 245 268 149 102 205 129 192 96z m3074 -143 c120 -27 181 -89 225 -230 l26 -84 -26 -39 c-49 -70 -262 -276 -370 -358 -91 -68 -287 -190 -336 -208 -15 -5 -151 93 -158 114 -1 4 27 38 63 75 177 181 305 425 344 656 19 112 12 104 93 96 39 -3 101 -13 139 -22z m2287 -78 c14 -14 -60 -112 -77 -102 -6 4 -11 32 -11 63 l0 56 41 -6 c22 -3 43 -8 47 -11z m452 -10 c0 -16 -38 -66 -51 -66 -14 0 -11 68 4 73 24 10 47 7 47 -7z m-178 -15 c4 -3 12 -47 19 -98 l12 -91 -54 -64 c-117 -138 -222 -248 -236 -248 -20 0 -162 102 -163 117 0 7 9 37 20 67 15 39 33 65 66 91 53 44 128 133 166 198 l27 46 68 -6 c37 -3 71 -8 75 -12z m-2207 -17 c10 -10 14 -25 11 -38 -3 -12 -6 -24 -6 -28 0 -18 -31 -6 -39 15 -23 61 -23 67 -2 67 11 0 27 -7 36 -16z m70 -299 c14 -38 39 -94 55 -122 17 -29 30 -59 30 -67 0 -14 -86 -159 -121 -204 -9 -12 -19 -19 -22 -15 -2 4 0 53 5 108 4 55 5 159 2 232 -9 179 3 195 51 68z m2255 -170 c58 -156 142 -340 292 -638 198 -396 294 -649 322 -847 37 -259 -260 -513 -829 -710 -212 -74 -463 -134 -710 -171 -267 -40 -824 -46 -918 -10 l-27 11 0 145 c0 80 2 145 4 145 28 0 168 34 226 55 203 74 541 277 740 446 47 39 120 98 163 131 175 134 419 392 546 577 200 293 190 450 -43 708 l-56 62 112 125 c62 69 115 123 119 118 4 -4 31 -70 59 -147z m-2430 -278 c-24 -181 -30 -204 -68 -260 -190 -278 -276 -399 -301 -421 -27 -25 -178 -30 -173 -6 2 8 6 50 9 92 9 126 -26 257 -104 391 -19 32 -33 60 -31 61 1 1 46 26 98 55 170 95 323 216 503 395 l82 81 3 -118 c2 -78 -4 -171 -18 -270z m-2534 271 c32 -46 105 -129 162 -186 l104 -103 -75 -117 c-312 -486 -370 -620 -303 -699 55 -66 149 -68 396 -9 181 43 266 73 403 144 126 65 230 149 302 246 27 36 53 66 58 66 17 0 188 -122 244 -174 l58 -54 -30 -32 c-92 -98 -295 -239 -485 -338 -264 -137 -447 -198 -698 -232 -75 -11 -107 -11 -165 0 -128 22 -128 22 -176 151 -48 129 -90 323 -91 417 0 52 6 77 34 135 76 161 101 318 75 467 -18 107 -16 126 20 210 31 70 98 190 106 190 2 0 30 -37 61 -82z m-572 33 c26 -7 60 -18 75 -26 38 -19 110 -95 117 -122 4 -14 -9 -65 -34 -130 -105 -282 -152 -496 -152 -688 l0 -113 -43 -48 c-28 -31 -49 -45 -59 -42 -20 8 -73 170 -92 284 -9 50 -21 183 -27 295 -11 212 -3 600 12 609 11 8 140 -5 203 -19z m5021 -82 c31 -23 54 -45 53 -49 -2 -4 -53 -60 -114 -125 -87 -91 -116 -116 -130 -111 -11 4 -41 26 -67 49 l-49 43 72 70 c40 38 90 93 112 122 25 34 45 51 54 48 8 -3 39 -24 69 -47z m-1378 -216 c28 -18 54 -37 58 -43 7 -11 -81 -144 -120 -180 l-25 -24 -28 22 c-55 45 -72 54 -124 68 -33 8 -73 11 -107 7 l-53 -6 16 29 c19 34 137 216 167 257 l20 28 72 -62 c40 -34 95 -77 124 -96z m1612 6 c93 -110 121 -169 121 -254 0 -83 -22 -138 -105 -265 -91 -138 -256 -332 -271 -318 -3 3 2 32 11 64 26 94 31 266 10 358 -20 93 -37 135 -77 199 l-31 48 39 42 c141 151 200 207 216 207 10 0 48 -36 87 -81z m-3117 -59 c10 -14 20 -39 21 -55 2 -28 0 -30 -39 -33 -36 -3 -42 0 -48 20 -22 84 21 128 66 68z m2544 -39 c21 -15 48 -38 58 -50 19 -21 19 -22 -10 -54 -274 -295 -488 -587 -612 -833 -82 -163 -100 -242 -69 -304 24 -48 72 -70 153 -70 40 0 75 -4 79 -9 3 -6 -14 -23 -37 -39 -55 -38 -245 -139 -324 -174 -222 -95 -437 -91 -591 12 -68 45 -163 141 -163 165 0 30 71 205 128 318 l57 111 110 27 c378 93 701 291 947 579 91 108 178 247 202 328 10 29 25 28 72 -7z m-3675 -20 c92 -42 182 -70 278 -86 76 -14 90 -20 157 -71 41 -30 74 -59 74 -64 0 -18 -94 -132 -143 -173 -54 -46 -163 -112 -232 -142 -171 -73 -446 -140 -545 -133 -41 3 -45 6 -48 31 -4 34 66 169 195 377 142 228 182 290 192 290 4 0 37 -13 72 -29z m2913 -6 c133 -34 334 -35 468 -4 49 12 92 18 95 15 7 -7 -47 -96 -104 -173 -24 -32 -85 -100 -136 -152 -200 -203 -396 -326 -660 -415 -109 -36 -157 -44 -157 -26 0 6 19 47 41 93 63 124 106 243 120 332 12 77 15 82 83 165 39 47 86 109 105 138 18 28 36 52 40 52 3 0 51 -11 105 -25z m-1956 -17 c-2 -19 -9 -23 -37 -23 -41 0 -51 17 -19 33 39 19 60 15 56 -10z m392 -95 c66 -84 130 -290 115 -366 -19 -93 -25 -107 -48 -107 -44 0 -142 31 -164 52 -12 11 -37 49 -55 83 l-32 63 42 89 c22 48 47 111 54 138 6 28 16 56 21 63 15 20 44 14 67 -15z m-598 -13 c33 -10 39 -17 64 -80 15 -39 25 -73 21 -76 -5 -5 -177 103 -177 111 0 2 4 15 10 29 10 28 26 31 82 16z m403 -9 c7 -12 -24 -91 -35 -91 -12 0 -16 9 -25 48 -6 28 -3 33 17 41 30 13 36 13 43 2z m1262 -28 c48 -35 51 -49 18 -84 -54 -57 -308 -219 -322 -205 -8 8 25 178 43 223 31 79 191 119 261 66z m1447 -15 c101 -175 76 -450 -59 -660 -77 -118 -173 -207 -285 -262 -106 -52 -227 -86 -305 -86 -65 0 -80 14 -72 73 11 81 173 364 326 567 116 155 339 410 358 410 7 0 23 -19 37 -42z m-2895 23 c13 -9 43 -103 57 -181 l6 -35 -27 35 c-36 47 -85 145 -85 170 0 21 24 27 49 11z m-1815 -188 c-6 -116 -18 -163 -41 -163 -11 0 -13 8 -9 28 3 15 10 63 16 107 10 73 27 135 36 135 2 0 1 -48 -2 -107z m3306 -43 c0 -34 -168 -401 -190 -415 -22 -13 -202 -27 -213 -16 -13 13 9 198 26 219 5 7 47 30 91 52 45 21 124 68 176 103 99 68 110 73 110 57z m-1456 -242 c37 -52 78 -172 83 -243 l6 -72 -55 -44 c-159 -130 -434 -304 -548 -348 -86 -34 -261 -54 -274 -33 -10 16 32 94 138 255 89 133 98 144 156 175 140 77 375 245 434 311 24 27 41 27 60 -1z m161 8 c36 -25 135 -129 135 -141 0 -17 -79 -87 -92 -83 -6 2 -20 37 -32 78 -13 41 -30 92 -39 114 -9 21 -17 40 -17 42 0 9 27 3 45 -10z m-1991 -43 c2 -10 10 -45 16 -78 7 -33 21 -93 32 -133 12 -40 18 -76 14 -80 -21 -21 -103 137 -113 217 -5 41 -2 55 12 71 22 25 32 25 39 3z m2733 -47 c7 -27 13 -63 15 -80 l3 -31 -97 2 c-135 2 -139 6 -87 76 35 46 52 60 88 72 25 7 51 12 56 11 6 -1 15 -24 22 -50z m-283 6 c3 -5 -8 -24 -23 -43 l-29 -34 -46 22 c-62 30 -54 51 22 56 32 2 60 4 64 5 4 1 9 -2 12 -6z m-2560 -194 c44 -95 128 -186 217 -237 54 -30 103 -91 86 -107 -9 -10 -133 75 -220 151 -70 61 -187 197 -187 217 0 15 40 58 54 58 6 0 28 -37 50 -82z m2396 52 c22 -11 40 -24 40 -28 0 -7 -139 -181 -299 -375 l-64 -77 -54 0 -55 0 46 52 c58 66 100 147 117 221 12 55 17 62 83 117 39 32 82 69 95 84 29 31 40 32 91 6z m282 -75 c57 -8 123 -16 148 -17 l45 -3 11 -100 c12 -112 25 -164 58 -239 20 -46 23 -73 29 -260 6 -233 -3 -316 -48 -451 -34 -100 -56 -144 -110 -220 -107 -150 -269 -256 -495 -326 -92 -28 -123 -32 -250 -37 -147 -4 -263 8 -298 34 -14 10 -6 15 54 33 160 48 420 199 573 335 268 236 373 535 246 702 -51 67 -160 115 -290 129 -92 9 -125 16 -125 26 0 5 53 73 118 152 65 78 138 168 162 200 25 31 50 57 57 57 7 0 59 -7 115 -15z m458 -12 c1 -20 -84 -193 -90 -186 -8 8 -40 145 -40 169 0 7 10 15 23 17 39 8 107 7 107 0z m-3300 -45 c125 -172 346 -346 548 -432 45 -20 108 -57 140 -83 31 -26 81 -63 110 -82 28 -18 52 -39 52 -47 0 -23 -184 -228 -268 -297 -201 -168 -471 -280 -747 -309 -244 -25 -395 41 -482 214 -45 87 -63 167 -63 273 0 170 44 280 154 390 34 34 134 114 224 179 90 65 193 142 230 172 37 29 70 54 73 54 3 0 16 -15 29 -32z m1240 -143 c0 -14 -145 -185 -154 -182 -5 2 -13 16 -17 31 -9 31 -36 66 -52 66 -6 0 -19 -7 -29 -17 -21 -19 -25 -101 -7 -135 6 -11 8 -23 4 -26 -10 -10 -133 -2 -209 13 -49 11 -78 23 -99 42 -27 26 -87 106 -87 116 0 3 75 7 168 10 172 5 254 18 386 62 74 24 96 29 96 20z m864 -71 c-82 -101 -197 -169 -246 -147 -21 9 -18 13 47 55 39 25 106 71 150 102 44 31 81 52 83 46 2 -6 -13 -31 -34 -56z m20 -253 c3 -5 -31 -56 -77 -112 -85 -106 -204 -268 -234 -320 -21 -36 -26 -36 -39 0 -14 37 -56 48 -92 25 l-25 -16 7 -138 c5 -123 4 -143 -15 -201 -11 -35 -23 -94 -26 -131 -3 -38 -9 -68 -12 -68 -15 0 -116 75 -176 132 -139 130 -221 297 -232 470 -7 116 -14 110 142 128 165 20 360 87 535 183 61 34 88 43 145 48 39 3 75 6 82 7 6 1 14 -2 17 -7z m473 -19 c136 -43 179 -115 148 -248 -52 -226 -295 -464 -648 -636 -84 -42 -245 -92 -274 -86 -16 3 -19 21 -27 145 l-8 142 29 63 c57 121 168 281 367 527 l100 124 126 -6 c80 -4 148 -13 187 -25z m-927 -3 c0 -29 -280 -109 -382 -109 -55 0 -58 1 -58 25 0 48 31 65 123 66 45 0 127 6 182 13 130 18 135 18 135 5z m-735 -39 c3 -5 -1 -10 -9 -10 -8 0 -18 5 -21 10 -3 6 1 10 9 10 8 0 18 -4 21 -10z m186 -2 c5 -52 -10 -73 -45 -64 -32 8 -33 20 -1 51 26 27 44 32 46 13z m2211 -54 c86 -64 153 -92 279 -118 26 -6 26 -6 33 -133 4 -71 3 -130 -2 -135 -11 -11 -147 40 -204 75 -62 37 -139 119 -164 172 -29 62 -34 185 -7 185 1 0 31 -21 65 -46z"/>
<path d="M6470 15020 c-160 -21 -291 -94 -386 -215 -96 -123 -127 -287 -83 -445 26 -95 57 -149 133 -228 98 -103 239 -162 386 -162 192 0 376 106 467 267 46 84 63 150 63 253 0 149 -40 247 -145 358 -85 91 -178 140 -301 161 -27 5 -56 11 -64 13 -8 3 -40 2 -70 -2z"/>
<path d="M9111 14665 c-133 -37 -213 -133 -241 -285 -31 -172 78 -370 238 -430 78 -30 185 -25 258 13 211 108 246 426 65 607 -89 89 -211 125 -320 95z"/>
</g>
</svg>