<?xml version="1.0" standalone="no"?>
<!DOCTYPE svg PUBLIC "-//W3C//DTD SVG 20010904//EN"
 "http://www.w3.org/TR/2001/REC-SVG-20010904/DTD/svg10.dtd">
<svg version="1.0" xmlns="http://www.w3.org/2000/svg"
 width="1640.000000pt" height="2360.000000pt" viewBox="0 0 1640.000000 2360.000000"
 preserveAspectRatio="xMidYMid meet">

<g transform="translate(0.000000,2360.000000) scale(0.100000,-0.100000)"
fill="#000000" stroke="none">
<path d="M10333 17502 c-46 -30 -227 -154 -338 -233 -38 -28 -88 -62 -110 -78
-22 -15 -63 -44 -92 -64 -117 -82 -180 -124 -222 -145 -25 -13 -63 -39 -86
-58 -23 -19 -45 -34 -49 -34 -5 0 -128 -90 -163 -120 -7 -5 -15 -10 -19 -10
-4 0 -25 -15 -48 -33 -23 -19 -61 -46 -86 -60 -25 -15 -61 -40 -80 -58 -50
-45 -170 -134 -205 -152 -16 -8 -45 -28 -62 -44 -18 -15 -65 -50 -103 -78 -39
-27 -103 -74 -142 -102 -39 -29 -77 -53 -83 -53 -7 0 -41 27 -76 61 -35 33
-90 78 -121 100 -32 22 -66 48 -75 58 -10 10 -60 53 -111 95 -51 43 -123 106
-160 139 -37 34 -87 78 -112 96 -25 19 -64 52 -87 73 -23 20 -57 44 -76 52
-33 13 -191 144 -322 267 -33 31 -94 85 -135 119 -41 35 -109 97 -150 138 -80
80 -118 102 -175 102 -56 0 -91 -24 -110 -74 -16 -42 -16 -47 1 -92 14 -37 33
-59 91 -105 63 -50 99 -81 183 -159 9 -8 81 -74 160 -146 80 -73 157 -145 171
-160 15 -16 71 -66 126 -112 97 -80 213 -194 213 -210 0 -8 139 -83 154 -82
18 0 186 -140 275 -231 20 -21 59 -53 86 -72 28 -19 69 -51 90 -72 65 -61 125
-95 166 -95 31 0 45 8 84 47 25 26 65 59 89 73 24 14 81 53 127 88 257 192
311 232 366 265 33 20 65 37 70 37 5 0 22 12 39 28 43 38 91 72 103 72 6 0 14
6 18 13 4 6 37 32 73 56 36 25 67 48 70 51 3 4 25 19 50 34 25 15 79 52 120
81 41 30 96 69 123 86 26 18 47 36 47 41 0 4 5 8 11 8 6 0 33 17 60 38 26 20
79 59 116 85 125 89 317 225 367 258 149 104 159 116 153 197 -3 44 -9 58 -32
78 -40 34 -114 32 -172 -4z"/>
<path d="M7399 16110 c-9 -5 -20 -21 -23 -35 -7 -29 -40 -45 -90 -45 -22 0
-40 -8 -56 -25 -35 -38 -75 -33 -99 13 -13 25 -29 29 -37 7 -7 -17 59 -159 89
-192 21 -24 61 -31 72 -13 3 6 17 7 29 4 15 -3 29 1 40 11 21 21 16 26 -30 34
-46 8 -62 30 -46 65 18 41 56 35 87 -14 14 -22 25 -46 25 -55 0 -25 53 -18 80
10 13 14 31 25 41 25 25 0 61 -50 56 -78 -5 -26 21 -46 43 -32 12 7 12 12 2
22 -20 20 -14 54 14 72 39 26 45 55 22 97 -15 27 -31 40 -60 48 -22 7 -59 30
-83 52 -45 42 -51 44 -76 29z"/>
<path d="M9865 15966 c-5 -2 -37 -9 -70 -16 -54 -11 -118 -34 -167 -61 -10 -5
-24 -9 -31 -9 -7 0 -29 -14 -48 -31 -19 -17 -47 -40 -63 -52 -70 -53 -162
-147 -198 -202 -22 -33 -53 -70 -69 -83 -18 -15 -31 -36 -35 -60 -6 -35 -39
-100 -55 -112 -5 -3 -12 -23 -18 -45 -5 -22 -16 -66 -24 -98 -8 -33 -20 -64
-26 -70 -6 -6 -11 -35 -11 -64 0 -29 -4 -53 -8 -53 -11 0 -42 55 -42 77 0 34
-14 45 -45 33 -20 -8 -38 -7 -62 1 -47 15 -60 1 -38 -41 15 -30 15 -34 -3 -68
-13 -25 -27 -38 -43 -40 -41 -4 -51 12 -58 86 -7 74 -21 102 -52 102 -20 0
-127 69 -150 96 -29 36 -68 46 -121 34 -29 -8 -73 -10 -105 -6 -35 4 -68 2
-90 -6 -43 -16 -67 -2 -71 40 -2 18 -11 37 -21 44 -9 7 -20 21 -24 31 -5 15
-10 16 -26 5 -11 -7 -22 -22 -25 -33 -3 -12 -21 -28 -40 -37 -19 -9 -37 -27
-41 -40 -16 -51 -68 -78 -82 -42 -4 11 5 24 26 41 49 39 56 59 26 79 -25 16
-27 16 -54 -10 -25 -24 -30 -25 -60 -15 -29 10 -35 9 -53 -9 l-21 -20 28 -26
c34 -32 23 -53 -22 -41 -29 8 -96 7 -125 -1 -10 -3 -18 -14 -18 -26 0 -11 -8
-33 -17 -49 -15 -25 -19 -27 -33 -15 -8 8 -31 18 -50 24 -32 8 -35 12 -32 43
2 36 40 79 69 79 22 0 111 58 123 79 5 10 7 35 4 57 -4 36 -2 41 28 59 22 14
34 29 36 48 2 15 -1 27 -6 27 -6 0 -29 16 -52 35 -44 37 -85 45 -119 23 -26
-16 -51 5 -51 42 0 22 -7 31 -34 44 -19 9 -38 16 -43 16 -15 0 -43 -35 -43
-54 0 -10 -16 -33 -36 -51 -26 -25 -34 -39 -29 -54 3 -11 1 -30 -5 -41 -14
-26 -47 -19 -73 16 -10 13 -23 24 -29 24 -5 0 -41 30 -78 68 -114 112 -160
152 -186 158 -13 3 -24 10 -24 15 0 5 -6 9 -14 9 -7 0 -34 16 -59 35 -25 19
-54 35 -64 35 -10 1 -36 7 -58 15 -22 8 -82 24 -134 35 -115 24 -335 28 -366
6 -11 -7 -36 -16 -56 -20 -39 -7 -95 -32 -104 -46 -3 -4 -26 -19 -53 -31 -26
-13 -66 -36 -88 -51 -23 -15 -47 -28 -53 -28 -6 0 -11 -4 -11 -10 0 -5 -27
-38 -60 -72 -34 -35 -78 -93 -100 -129 -21 -36 -46 -71 -54 -79 -9 -7 -16 -19
-16 -26 0 -8 -4 -14 -9 -14 -17 0 -51 -86 -51 -127 0 -22 -6 -46 -14 -52 -7
-6 -16 -33 -19 -61 -5 -41 -12 -55 -46 -86 -23 -20 -41 -42 -41 -50 0 -18 -32
-34 -68 -34 -22 0 -37 -10 -62 -41 -43 -54 -34 -68 60 -90 40 -10 77 -22 82
-27 5 -5 -22 -25 -67 -47 -42 -22 -86 -48 -98 -60 -36 -34 -73 -47 -87 -30
-19 23 -4 45 28 45 30 0 58 21 45 33 -10 11 -53 8 -76 -5 -12 -7 -38 -18 -57
-23 -33 -10 -35 -13 -32 -50 9 -148 2 -168 -69 -180 -21 -4 -39 -11 -39 -16 0
-19 50 -59 73 -59 30 0 67 -39 67 -71 0 -30 -38 -69 -66 -69 -11 0 -29 -7 -40
-15 -10 -8 -27 -15 -37 -15 -21 0 -99 38 -109 53 -4 7 -13 7 -26 1 -29 -14
-10 -66 42 -119 52 -51 48 -75 -14 -75 -44 0 -70 26 -70 72 0 23 -6 29 -36 37
-20 5 -42 18 -49 27 -18 25 -43 11 -50 -30 -9 -44 -5 -50 47 -66 58 -18 77
-36 83 -79 4 -20 13 -51 21 -70 19 -42 14 -48 -93 -113 -54 -34 -69 -48 -61
-56 14 -14 15 -78 4 -184 -7 -73 -9 -77 -38 -87 -16 -6 -42 -21 -58 -35 -16
-13 -35 -26 -42 -29 -10 -3 -9 -9 5 -24 9 -11 17 -34 17 -51 0 -25 4 -32 20
-32 11 0 27 11 36 25 9 14 25 25 36 25 25 0 58 -18 58 -31 0 -6 14 -24 30 -39
52 -48 29 -104 -25 -62 -41 32 -101 7 -130 -54 -14 -31 -15 -36 -1 -56 9 -12
16 -34 16 -48 0 -22 -6 -28 -37 -36 -35 -8 -38 -12 -41 -46 -3 -32 1 -40 22
-49 37 -17 40 -38 11 -69 -14 -14 -25 -32 -25 -38 0 -22 86 -100 118 -106 23
-6 29 -11 25 -27 -3 -10 -11 -19 -17 -19 -6 0 -26 -12 -43 -27 -47 -42 -74
-62 -111 -84 -43 -25 -39 -48 13 -72 22 -11 49 -27 60 -36 11 -9 42 -23 69
-29 99 -25 118 -72 29 -72 -36 0 -43 -3 -43 -20 0 -14 11 -22 40 -31 22 -7 40
-16 40 -21 0 -4 14 -8 30 -8 37 0 80 -38 59 -51 -22 -14 -38 -11 -56 11 -32
37 -105 21 -123 -26 -5 -13 -20 -28 -33 -33 -30 -12 -49 -35 -45 -58 2 -12 -7
-21 -30 -28 -48 -16 -57 -29 -46 -66 10 -36 15 -39 104 -67 114 -36 159 -45
186 -38 30 8 54 -8 54 -34 0 -25 -20 -30 -110 -30 -78 0 -78 0 -89 -30 -9 -27
-15 -30 -50 -30 -49 0 -91 -15 -91 -32 1 -7 19 -26 41 -41 24 -16 39 -34 36
-41 -9 -23 22 -100 49 -124 14 -12 46 -28 70 -34 24 -7 44 -15 44 -19 0 -10
-58 -29 -88 -29 -26 0 -83 -42 -93 -69 -4 -10 1 -22 13 -32 17 -13 18 -20 9
-37 -6 -11 -20 -24 -31 -27 -25 -8 -25 -16 0 -48 26 -33 25 -45 -7 -79 -25
-26 -26 -30 -14 -68 12 -42 8 -113 -11 -189 -11 -41 -10 -45 12 -63 12 -10 20
-21 17 -25 -4 -3 -35 -15 -69 -27 -69 -24 -74 -32 -77 -128 -1 -45 0 -47 42
-67 55 -27 65 -26 69 2 3 19 9 22 48 22 38 0 45 -3 48 -21 2 -15 -7 -26 -33
-39 -40 -22 -44 -41 -15 -78 31 -39 26 -72 -15 -103 l-36 -27 29 -31 c15 -17
33 -43 39 -57 10 -23 20 -28 67 -33 51 -7 59 -5 88 19 44 37 63 30 61 -24 -1
-24 -7 -49 -13 -55 -7 -7 -10 -6 -10 2 0 6 -13 18 -29 26 -26 14 -30 14 -46
-4 -10 -11 -23 -20 -30 -20 -27 0 -45 -38 -54 -116 -11 -105 -5 -116 62 -112
48 3 51 5 59 36 11 43 43 44 51 2 4 -19 17 -35 37 -45 20 -10 30 -22 26 -30
-8 -21 13 -74 34 -85 10 -6 35 -10 55 -10 29 0 38 -5 42 -21 4 -14 12 -19 24
-16 11 3 29 -3 42 -13 36 -30 10 -43 -90 -44 -85 -1 -88 0 -91 22 -2 15 -15
28 -35 37 -39 16 -144 79 -167 100 -22 20 -60 20 -60 0 0 -16 41 -98 75 -148
18 -28 18 -29 -3 -79 l-22 -51 21 -33 c11 -19 18 -42 15 -52 -5 -13 1 -22 19
-30 14 -7 32 -27 40 -46 12 -27 22 -35 52 -41 66 -12 143 -64 143 -96 0 -9 10
-23 22 -31 22 -15 22 -15 -11 -20 -27 -4 -39 1 -65 24 -35 33 -65 43 -96 33
-15 -5 -20 -13 -18 -28 2 -18 13 -24 57 -32 68 -13 109 -55 109 -110 0 -20 4
-41 10 -47 5 -5 43 -14 83 -19 68 -8 77 -12 105 -45 l30 -37 55 13 c71 16 83
23 87 49 3 17 8 20 30 15 38 -9 39 -12 13 -30 -18 -13 -22 -23 -17 -45 9 -47
-8 -77 -46 -81 -25 -2 -34 -8 -36 -25 -3 -18 1 -23 21 -23 13 0 34 -11 47 -25
29 -31 106 -75 130 -75 9 0 28 8 41 19 30 23 108 61 127 61 7 0 28 -16 45 -35
25 -28 38 -35 67 -35 22 0 48 8 63 20 30 24 99 27 117 6 19 -24 38 -8 56 50
16 50 20 55 58 65 38 10 111 7 123 -5 9 -8 -26 -44 -48 -51 -30 -10 -23 -19
31 -42 56 -24 61 -39 36 -109 -16 -47 -7 -80 28 -95 29 -14 89 -4 106 16 18
22 35 19 82 -15 37 -27 43 -29 58 -15 24 21 40 19 40 -7 0 -12 7 -30 16 -39
15 -17 15 -24 -8 -96 -24 -74 -27 -78 -62 -86 -40 -10 -44 -18 -21 -41 34 -33
145 -28 158 8 3 8 9 50 13 95 4 47 13 88 20 96 19 19 18 23 -8 27 -19 2 -24
11 -28 50 -3 26 -13 55 -22 65 -10 12 -14 29 -11 51 3 19 0 39 -8 48 -11 14
-10 19 9 34 15 13 22 29 22 54 0 26 4 36 16 36 12 0 15 -9 13 -44 -4 -63 25
-124 65 -134 38 -10 59 -46 50 -87 -15 -78 -15 -136 1 -191 11 -39 16 -86 14
-148 -2 -86 7 -322 32 -806 6 -118 9 -246 8 -284 l-4 -70 -45 -17 c-68 -26
-215 -59 -263 -59 -45 0 -114 -27 -135 -53 -22 -27 -26 -84 -8 -112 41 -63
104 -77 224 -50 176 40 211 49 267 67 121 40 163 65 186 111 21 40 22 48 13
232 -9 180 -12 796 -5 860 5 49 5 179 -1 320 -3 53 -1 60 15 57 19 -3 47 14
47 29 0 4 -15 9 -32 11 l-33 3 0 70 0 70 47 -3 c44 -3 49 -1 67 28 10 17 28
38 40 46 11 8 21 22 21 30 0 18 68 154 78 155 4 1 33 3 65 5 48 3 57 1 57 -14
0 -10 -20 -26 -50 -41 -28 -14 -50 -28 -50 -32 0 -4 12 -22 27 -39 26 -31 26
-33 8 -46 -10 -8 -25 -14 -32 -14 -7 0 -38 -16 -68 -36 -56 -37 -69 -66 -46
-103 9 -14 51 -7 51 9 0 12 88 70 106 70 8 0 24 -16 35 -35 l21 -35 79 0 c75
0 79 -1 85 -24 6 -27 26 -39 49 -29 23 8 13 26 -23 42 -40 18 -40 27 -1 49 17
9 47 34 67 54 19 21 44 41 56 44 12 4 34 17 49 30 50 42 130 26 141 -29 3 -17
2 -35 -3 -40 -4 -4 -39 -16 -77 -26 -94 -24 -139 -48 -124 -66 14 -17 51 -7
57 17 10 34 48 18 63 -27 14 -41 0 -75 -31 -75 -25 0 -69 -43 -69 -68 0 -11 7
-26 16 -33 11 -9 14 -23 11 -46 -5 -28 -2 -34 18 -39 35 -9 63 12 71 50 7 43
71 97 114 98 44 1 47 -9 13 -45 -17 -17 -37 -51 -44 -75 -12 -40 -66 -102 -89
-102 -6 0 -10 -6 -10 -14 0 -23 67 -25 111 -3 22 10 39 25 39 33 0 20 33 34
78 34 47 0 67 20 64 64 -3 30 0 33 78 69 62 30 86 48 109 80 50 73 62 80 121
69 74 -14 84 -9 98 51 14 62 6 120 -19 143 -19 17 -18 18 6 61 l26 43 -36 35
c-19 20 -35 39 -35 43 1 12 122 77 139 74 51 -11 88 -87 95 -198 3 -38 8 -78
12 -88 5 -12 -1 -25 -20 -42 -34 -33 -33 -46 10 -94 39 -43 59 -48 114 -28 27
9 35 8 44 -4 13 -18 122 -52 136 -43 7 4 6 13 0 26 -9 16 -7 21 12 28 13 5 46
10 73 12 l50 4 6 -95 c3 -52 11 -122 17 -155 6 -33 16 -186 22 -340 6 -154 15
-311 20 -350 5 -38 12 -133 14 -210 3 -77 11 -156 17 -175 6 -19 13 -108 16
-197 5 -157 6 -164 31 -190 l26 -28 260 0 c231 0 265 2 293 18 78 42 82 136 8
199 -25 22 -100 23 -148 3 -54 -22 -158 -20 -201 5 -19 12 -37 28 -41 38 -3 9
-10 93 -16 187 -5 93 -12 177 -16 185 -9 22 -33 603 -38 920 -2 151 -7 330
-10 397 -6 128 -1 173 20 173 7 0 33 -12 59 -26 38 -21 44 -29 35 -40 -6 -8
-17 -14 -24 -14 -18 0 -25 -23 -25 -81 0 -55 15 -92 53 -128 15 -13 28 -40 32
-62 8 -46 19 -48 102 -22 40 12 52 21 48 32 -2 9 -5 43 -6 75 l-2 60 52 48
c42 38 51 51 42 62 -9 10 -8 15 4 20 21 8 28 -15 21 -66 -15 -102 -15 -103 30
-106 30 -2 45 2 59 18 32 35 105 20 105 -22 0 -11 -8 -27 -17 -34 -16 -12 -14
-13 20 -14 47 0 50 -24 7 -62 -16 -14 -30 -31 -30 -37 0 -16 53 -37 125 -50
47 -8 65 -17 85 -41 27 -32 46 -36 134 -24 48 7 60 18 26 27 -12 3 -20 14 -20
26 0 29 26 27 46 -4 22 -34 73 -34 110 0 33 31 36 31 72 0 36 -30 51 -31 85
-4 15 11 47 27 72 36 33 11 49 23 57 42 33 84 49 111 67 111 10 0 24 -6 30
-13 6 -8 28 -19 50 -25 21 -7 44 -19 51 -27 14 -17 60 -21 60 -5 0 16 -78 91
-113 109 -21 11 -33 24 -35 41 -3 25 6 31 77 51 10 3 18 -9 26 -36 15 -53 50
-61 66 -16 13 38 26 41 124 33 l79 -7 -37 -37 c-20 -21 -37 -41 -37 -46 0 -5
13 -15 30 -22 25 -10 35 -10 62 3 18 8 50 22 70 30 35 15 36 17 26 45 -16 41
-6 56 43 71 24 7 55 22 68 32 14 11 32 17 42 14 10 -3 36 -1 59 6 45 14 60 42
40 79 -11 20 -18 22 -65 17 -51 -5 -54 -4 -61 21 -9 33 -7 48 12 89 12 28 20
32 57 35 39 3 42 5 42 32 1 20 7 31 22 37 12 4 29 18 37 31 17 26 43 101 48
138 2 21 15 30 76 54 49 19 72 34 72 45 -1 28 -49 72 -93 85 -31 9 -43 18 -45
34 -3 18 5 26 40 41 24 10 54 30 67 45 23 24 24 28 11 67 -13 39 -13 42 11 60
l24 19 -33 31 -34 30 22 19 c12 11 31 22 41 25 9 3 22 18 28 33 l9 27 1 -26
c2 -50 61 -42 79 10 9 26 8 32 -7 41 -11 6 -30 6 -50 0 -28 -8 -32 -6 -37 17
-6 22 -11 24 -48 21 -22 -3 -48 -8 -57 -12 -26 -12 -32 22 -9 51 11 14 20 30
20 36 0 6 12 24 28 40 24 25 27 36 27 95 l0 67 -47 30 c-32 21 -48 38 -50 55
-3 21 -9 26 -46 31 -23 3 -48 11 -54 17 -7 7 -30 12 -53 12 -22 0 -51 7 -63
15 -21 15 -21 17 -5 43 34 55 68 65 123 37 38 -20 58 -11 70 33 17 62 15 65
-30 58 -39 -6 -41 -5 -55 28 -24 56 -22 59 47 54 50 -4 64 -9 77 -27 9 -13 26
-34 39 -46 13 -13 22 -32 20 -42 -4 -25 10 -43 32 -43 22 0 31 19 18 42 -6 13
-3 21 14 31 13 8 35 21 50 30 15 10 34 30 43 46 14 28 13 30 -10 45 -25 16
-34 46 -15 46 6 0 22 11 36 25 21 21 23 29 14 41 -11 12 -17 11 -46 -11 l-34
-26 -63 16 c-34 9 -91 19 -127 22 -36 3 -76 12 -90 19 -30 15 -90 72 -90 86 0
5 -8 27 -19 48 -10 21 -16 41 -13 44 12 13 53 5 59 -11 16 -45 45 -74 71 -71
44 5 47 28 12 85 -26 42 -30 55 -21 71 18 34 49 37 72 8 11 -13 28 -28 39 -31
26 -8 27 -55 3 -97 l-18 -30 35 -29 c44 -37 72 -45 110 -29 32 13 35 21 21 48
-6 11 -5 28 4 48 11 27 20 32 88 48 68 16 96 34 80 50 -4 3 -21 6 -40 6 -36 0
-39 6 -22 43 8 18 7 37 -6 80 -14 50 -21 58 -56 73 -42 19 -45 25 -28 52 9 14
8 25 -4 49 -16 30 -16 31 12 36 30 6 48 37 53 92 3 27 6 30 38 30 44 0 47 22
5 45 -27 15 -30 22 -33 73 l-3 56 46 12 c57 14 58 35 3 44 -24 4 -48 11 -54
16 -16 13 -6 47 18 60 14 8 18 19 16 42 -3 28 -9 34 -46 47 -34 12 -46 12 -62
2 -28 -17 -47 -15 -70 8 -39 39 -13 76 35 50 30 -16 72 -6 80 21 10 30 1 34
-50 22 -39 -9 -45 -8 -47 6 -2 25 -1 38 6 65 9 37 -24 53 -66 31 -31 -15 -47
-9 -48 18 0 4 -13 13 -30 18 -39 14 -39 43 -1 59 36 14 53 6 49 -23 -2 -12 2
-23 7 -24 6 -1 10 12 10 30 0 41 8 52 56 83 42 26 54 69 23 81 -23 8 -121 -43
-127 -67 -12 -48 -147 1 -147 53 0 9 93 37 122 37 16 0 38 5 49 11 16 8 18 13
8 25 -9 11 -8 23 6 54 15 32 15 42 5 55 -7 8 -18 15 -26 15 -29 0 -24 23 11
55 33 31 36 39 33 77 -2 40 -1 44 28 53 39 13 60 30 67 55 4 14 -2 20 -24 25
-31 7 -54 38 -45 60 7 20 43 7 67 -24 18 -22 29 -26 72 -26 55 0 86 21 87 59
0 16 -5 18 -54 12 -61 -8 -86 7 -86 50 0 13 -9 32 -21 42 -12 9 -32 34 -45 55
-16 25 -35 40 -54 44 -23 4 -37 18 -60 59 -35 62 -37 75 -12 97 23 21 56 22
72 2 16 -19 49 -16 63 6 8 12 3 25 -18 54 -26 34 -32 37 -64 31 -75 -12 -76
-12 -79 9 -1 12 12 37 33 59 19 22 35 45 35 52 0 7 -13 22 -30 34 -16 12 -30
28 -30 36 0 21 38 17 50 -7 16 -29 55 -22 55 11 0 20 -7 27 -32 35 -24 6 -36
18 -43 41 -6 17 -20 40 -31 50 -17 15 -19 25 -13 78 4 34 10 66 15 72 5 6 0
28 -12 52 -17 34 -29 44 -60 52 -22 6 -44 8 -49 5 -16 -10 -79 23 -106 55 -20
23 -31 29 -49 24 -29 -7 -37 5 -28 47 6 31 7 32 13 10 10 -45 32 -47 101 -12
76 39 92 53 84 72 -12 31 -59 49 -114 42 -39 -4 -51 -3 -51 7 0 8 -9 24 -21
36 -19 20 -19 24 -5 58 10 24 21 36 35 36 26 0 33 13 22 42 -11 29 -74 51
-134 46 -39 -3 -42 -1 -45 25 -3 23 0 27 22 27 33 0 76 20 76 35 0 7 7 18 16
26 9 7 25 33 37 57 l21 45 -26 21 c-15 12 -32 41 -39 66 -15 54 -31 74 -70 90
-27 12 -28 14 -12 26 30 22 56 16 100 -25 49 -46 82 -59 94 -40 12 20 11 67
-2 75 -6 3 -9 15 -6 25 4 16 -1 19 -33 19 -43 0 -50 10 -50 71 0 32 -5 41 -29
53 -18 10 -30 26 -34 44 -7 37 -52 69 -72 52 -11 -9 -21 -7 -45 10 -16 12 -38
20 -47 18 -14 -3 -80 -82 -82 -99 -1 -3 9 -11 22 -16 17 -8 29 -7 48 3 37 20
47 17 90 -26 22 -22 44 -40 48 -40 5 0 16 -12 26 -26 20 -31 9 -44 -30 -36
-19 3 -27 -2 -36 -21 -16 -36 -88 -48 -135 -22 -21 11 -42 15 -62 10 -37 -8
-52 13 -52 74 0 22 -4 42 -10 46 -5 3 -14 20 -19 38 -5 18 -21 64 -35 102 -14
39 -26 76 -26 84 0 15 -68 114 -82 119 -4 2 -8 12 -8 22 0 28 -11 50 -24 50
-7 0 -33 21 -58 48 -110 112 -239 190 -408 248 -45 15 -91 19 -250 21 -107 1
-199 1 -205 -1z m390 -257 c231 -81 402 -272 478 -534 29 -99 30 -337 2 -445
-36 -141 -99 -266 -184 -367 -126 -149 -280 -239 -453 -264 -152 -22 -293 4
-422 79 -93 53 -233 201 -278 292 -136 275 -138 551 -6 820 103 209 258 346
473 418 84 28 106 31 225 26 73 -2 123 -10 165 -25z m-3650 -14 c37 -9 74 -20
83 -25 9 -5 40 -19 67 -32 49 -22 145 -91 196 -139 48 -46 125 -155 156 -219
111 -233 123 -418 44 -680 -40 -134 -178 -304 -303 -374 -110 -61 -176 -78
-313 -78 -125 0 -162 8 -272 58 -179 81 -333 254 -405 454 -48 135 -51 152
-52 310 0 166 5 193 64 332 70 166 196 294 358 364 99 43 262 55 377 29z m940
-161 c22 -22 15 -36 -30 -58 -46 -21 -136 -27 -143 -8 -2 7 6 12 21 12 14 0
27 3 29 8 7 17 71 62 88 62 10 0 26 -7 35 -16z m938 -334 c9 -11 24 -20 33
-20 10 0 14 -7 12 -21 -5 -32 -77 -67 -153 -75 -55 -6 -65 -10 -65 -26 0 -10
-10 -22 -24 -27 -35 -14 -41 -42 -14 -63 l23 -18 -32 0 c-34 0 -58 26 -47 53
3 9 -4 21 -16 30 -22 15 -22 15 16 41 21 14 49 26 61 26 16 0 23 6 23 19 0 12
11 23 28 30 15 5 45 23 67 40 48 35 65 37 88 11z m-518 -62 c13 -19 25 -23 68
-23 46 0 52 -3 55 -22 3 -18 -3 -23 -35 -29 -52 -11 -75 -6 -95 17 -9 10 -21
19 -27 19 -14 0 -34 38 -26 50 11 18 43 11 60 -12z m95 -158 c0 -23 28 -40 64
-40 28 0 29 -3 20 -37 -6 -20 -13 -23 -63 -23 -31 0 -61 4 -67 8 -14 10 -16
95 -1 104 23 15 47 9 47 -12z m440 5 c0 -8 -6 -15 -14 -15 -17 0 -28 14 -19
24 12 12 33 6 33 -9z m2730 -1 c0 -2 -9 -4 -21 -4 -11 0 -18 4 -14 10 5 8 35
3 35 -6z m-2700 -44 c12 0 46 -73 42 -93 -5 -27 -19 -20 -25 13 -4 17 -13 30
-20 30 -20 0 -50 37 -42 50 4 6 14 9 22 6 8 -3 18 -6 23 -6z m2580 -11 c0 -11
-27 -12 -34 0 -3 4 -3 11 0 14 8 8 34 -3 34 -14z m159 -131 c14 -36 -7 -48
-29 -18 -25 32 -25 40 0 40 12 0 24 -9 29 -22z m-2219 -14 c0 -14 -4 -23 -10
-19 -5 3 -10 15 -10 26 0 10 5 19 10 19 6 0 10 -12 10 -26z m1984 -2 c8 -13
-11 -35 -23 -28 -16 10 -14 36 3 36 8 0 17 -4 20 -8z m-71 -321 c-3 -10 0 -22
6 -25 31 -20 -5 -66 -51 -66 -28 0 -30 2 -24 28 4 15 16 33 26 41 11 7 20 20
20 27 0 8 6 14 14 14 9 0 12 -7 9 -19z m452 -281 c3 -5 1 -10 -4 -10 -6 0 -11
5 -11 10 0 6 2 10 4 10 3 0 8 -4 11 -10z m-6370 -106 c0 -15 -8 -20 -45 -22
l-45 -3 35 26 c38 28 55 28 55 -1z m6387 -100 c10 -21 9 -30 -4 -52 -9 -15
-24 -27 -32 -26 -9 0 -32 1 -51 2 -52 3 -55 26 -9 67 48 42 80 45 96 9z m137
-55 c31 -11 37 -23 25 -53 -14 -37 -74 -5 -74 40 0 27 4 28 49 13z m-6689
-105 c0 -2 -12 -4 -27 -4 -21 0 -24 3 -14 9 13 8 41 5 41 -5z m-130 -783 c0
-6 -5 -13 -10 -16 -14 -8 -3 -24 24 -35 20 -8 19 -9 -6 -9 -15 -1 -31 -7 -35
-15 -4 -8 -17 -16 -28 -18 -16 -2 -19 3 -20 37 0 22 1 46 3 53 5 14 72 17 72
3z m6860 -805 c0 -3 -4 -8 -10 -11 -5 -3 -10 -1 -10 4 0 6 5 11 10 11 6 0 10
-2 10 -4z m248 -99 c29 -30 40 -108 19 -125 -35 -29 -107 31 -107 89 0 58 49
78 88 36z m-6886 -178 c-15 -6 -30 -5 -40 1 -13 7 -8 9 23 9 35 0 37 -1 17
-10z m6848 -204 c29 -30 16 -51 -25 -41 -28 7 -41 27 -31 51 8 22 29 18 56
-10z m40 -212 c0 -15 -5 -41 -12 -59 -11 -30 -9 -34 21 -65 23 -23 31 -38 27
-53 -3 -12 -6 -27 -6 -33 0 -19 -18 -16 -47 7 -16 12 -41 20 -64 20 -34 0 -41
4 -53 33 -16 37 -10 49 44 108 17 19 39 42 48 52 23 25 42 21 42 -10z m-7110
-3 c0 -5 -4 -10 -10 -10 -5 0 -10 5 -10 10 0 6 5 10 10 10 6 0 10 -4 10 -10z
m210 -419 c0 -5 9 -13 21 -16 28 -9 10 -28 -22 -23 -28 4 -41 48 -15 48 9 0
16 -4 16 -9z m370 -106 c10 -12 10 -15 -3 -15 -8 0 -17 7 -21 15 -3 8 -2 15 3
15 5 0 14 -7 21 -15z m6078 -242 c-2 -10 -12 -18 -23 -18 -11 0 -21 8 -23 18
-3 13 3 17 23 17 20 0 26 -4 23 -17z m-6715 -83 c5 -19 -36 -45 -54 -35 -13 9
-11 53 4 58 21 7 45 -4 50 -23z m6727 -170 c0 -5 -4 -10 -10 -10 -5 0 -10 5
-10 10 0 6 5 10 10 10 6 0 10 -4 10 -10z m-6540 -648 c0 -25 -19 -42 -47 -42
-28 0 -32 34 -5 49 27 16 52 13 52 -7z m220 -57 c0 -29 -75 -47 -110 -25 -19
12 -9 20 32 30 54 13 78 11 78 -5z m194 -121 c24 -9 19 -45 -10 -75 -24 -25
-25 -30 -14 -68 7 -26 22 -49 40 -63 37 -27 37 -42 0 -97 -17 -24 -30 -52 -30
-61 0 -34 -57 -41 -85 -10 -20 22 -46 25 -74 10 -26 -13 -90 -1 -95 19 -19 69
-18 75 25 99 23 13 46 36 53 53 18 42 9 88 -19 99 -28 11 -37 24 -29 43 4 10
28 17 79 22 40 3 82 13 92 20 20 16 42 18 67 9z m176 -94 c0 -29 -27 -90 -39
-90 -6 0 -15 9 -21 19 -8 15 -5 28 11 55 23 39 49 48 49 16z m6140 -71 c0 -6
-15 -9 -32 -7 -36 3 -48 28 -27 55 12 13 16 12 36 -11 13 -15 23 -32 23 -37z
m-150 -119 c0 -5 -4 -10 -10 -10 -5 0 -10 5 -10 10 0 6 5 10 10 10 6 0 10 -4
10 -10z m-2545 -14 c41 -18 50 -56 13 -56 -27 0 -58 27 -58 52 0 22 1 22 45 4z
m-3138 -13 c5 -15 -21 -23 -38 -12 -12 8 -12 10 1 19 17 11 32 8 37 -7z m818
-42 c-10 -10 -34 10 -29 24 6 14 8 13 19 -2 8 -10 12 -20 10 -22z m432 33 c-3
-3 -12 -4 -19 -1 -8 3 -5 6 6 6 11 1 17 -2 13 -5z m-117 -54 c0 -5 -5 -10 -11
-10 -5 0 -7 5 -4 10 3 6 8 10 11 10 2 0 4 -4 4 -10z m1914 1 c8 -12 -42 -71
-60 -71 -17 0 -19 51 -2 68 14 14 54 16 62 3z m-2106 -73 c20 -17 14 -25 -25
-33 -21 -4 -52 -13 -70 -22 -43 -20 -79 -14 -75 12 2 11 12 29 23 41 16 17 28
20 77 16 31 -2 63 -9 70 -14z m-924 -4 c22 -9 20 -37 -4 -52 -29 -18 -26 -60
5 -74 20 -9 22 -14 14 -29 -10 -20 -59 -27 -59 -9 0 6 -8 13 -17 17 -76 26
-84 32 -74 52 6 10 24 24 40 29 17 6 37 24 46 41 16 32 22 35 49 25z m136 -39
c1 -16 -69 -26 -92 -14 -16 9 -18 13 -7 19 18 12 99 7 99 -5z m1508 -50 c4
-29 -10 -45 -40 -45 -22 0 -23 28 -2 58 20 29 38 24 42 -13z m1329 -7 c-3 -7
-5 -2 -5 12 0 14 2 19 5 13 2 -7 2 -19 0 -25z m-970 -14 c8 -22 -18 -37 -36
-20 -7 8 -10 19 -7 25 10 16 36 13 43 -5z m312 -46 c-1 -28 -50 -112 -64 -109
-5 1 -9 11 -8 22 2 11 -4 33 -12 49 -13 26 -13 29 8 43 12 9 34 16 50 16 22 1
27 -3 26 -21z m-1059 -72 c0 -9 -30 -14 -35 -6 -4 6 3 10 14 10 12 0 21 -2 21
-4z m1275 -36 c-3 -5 -13 -6 -21 -3 -12 4 -13 8 -3 14 15 9 32 2 24 -11z m415
5 c0 -15 -43 -12 -48 3 -3 10 4 13 22 10 15 -2 26 -7 26 -13z m-720 -34 c0
-17 -27 -37 -37 -27 -4 4 28 46 34 46 2 0 3 -9 3 -19z m2071 -7 c25 -12 28
-18 18 -30 -19 -23 -79 -15 -79 10 0 11 19 36 27 36 2 0 18 -7 34 -16z m-1745
-25 c19 -21 18 -21 -5 -40 -21 -17 -81 -27 -81 -13 0 9 52 74 60 74 4 0 15 -9
26 -21z m-1881 -19 c4 -6 -5 -10 -20 -10 -15 0 -24 4 -20 10 3 6 12 10 20 10
8 0 17 -4 20 -10z m2449 -26 c36 -14 0 -54 -49 -54 -16 0 -29 35 -20 50 7 11
45 13 69 4z"/>
<path d="M10025 15343 c-177 -35 -258 -127 -329 -373 -10 -37 -16 -104 -18
-205 -2 -133 1 -157 20 -213 51 -145 139 -222 255 -222 166 0 311 180 353 437
40 249 -21 474 -149 551 -33 20 -97 32 -132 25z"/>
<path d="M6401 15374 c-89 -24 -154 -84 -203 -189 -32 -68 -33 -74 -36 -228
-4 -183 5 -225 75 -349 51 -89 102 -139 180 -174 48 -22 67 -25 132 -22 68 3
82 7 132 41 66 43 120 116 149 199 28 81 29 308 1 394 -33 104 -82 182 -153
248 -59 55 -75 64 -136 79 -81 20 -72 20 -141 1z"/>
<path d="M5655 15801 c-6 -11 9 -23 19 -14 9 9 7 23 -3 23 -6 0 -12 -4 -16 -9z"/>
<path d="M5577 15774 c-4 -4 -4 -10 -2 -14 6 -10 45 0 45 11 0 10 -33 12 -43
3z"/>
<path d="M5845 15770 c-3 -5 3 -10 15 -10 12 0 18 5 15 10 -3 6 -10 10 -15 10
-5 0 -12 -4 -15 -10z"/>
<path d="M11255 15740 c-3 -5 1 -10 10 -10 9 0 13 5 10 10 -3 6 -8 10 -10 10
-2 0 -7 -4 -10 -10z"/>
<path d="M7602 15712 c-20 -14 33 -52 72 -52 43 0 73 21 54 37 -18 16 -110 26
-126 15z"/>
<path d="M11045 15709 c-10 -15 3 -25 16 -12 7 7 7 13 1 17 -6 3 -14 1 -17 -5z"/>
<path d="M8388 15606 c-10 -14 -18 -34 -18 -46 0 -20 1 -19 40 6 43 29 50 57
15 61 -12 2 -27 -7 -37 -21z"/>
<path d="M8650 15590 c0 -5 7 -10 15 -10 8 0 15 5 15 10 0 6 -7 10 -15 10 -8
0 -15 -4 -15 -10z"/>
<path d="M8537 15546 c16 -22 19 -23 30 -9 16 21 8 33 -23 33 -25 0 -25 0 -7
-24z"/>
<path d="M9050 15493 c0 -5 5 -15 10 -23 8 -12 10 -11 10 8 0 12 -4 22 -10 22
-5 0 -10 -3 -10 -7z"/>
<path d="M11508 15448 c-46 -16 -36 -40 15 -36 35 2 43 7 45 26 4 25 -13 28
-60 10z"/>
<path d="M8250 15356 c0 -9 5 -16 10 -16 6 0 10 4 10 9 0 6 -4 13 -10 16 -5 3
-10 -1 -10 -9z"/>
<path d="M8621 15351 c-22 -14 4 -41 40 -41 40 0 45 17 10 35 -35 18 -32 17
-50 6z"/>
<path d="M5390 15180 c-27 -4 -36 -10 -38 -28 -4 -26 13 -52 35 -52 13 0 47
65 41 79 -2 3 -19 4 -38 1z"/>
<path d="M11581 14934 c1 -11 4 -32 8 -49 l7 -30 5 38 c3 24 0 42 -8 49 -10 8
-13 6 -12 -8z"/>
<path d="M5123 14913 c-24 -9 -13 -24 15 -21 15 2 26 8 25 13 -2 12 -23 16
-40 8z"/>
<path d="M11820 14810 c0 -5 5 -10 10 -10 6 0 10 5 10 10 0 6 -4 10 -10 10 -5
0 -10 -4 -10 -10z"/>
<path d="M5098 14803 c7 -3 16 -2 19 1 4 3 -2 6 -13 5 -11 0 -14 -3 -6 -6z"/>
<path d="M11640 14759 c0 -7 -10 -32 -22 -56 l-23 -45 30 -24 c37 -29 45 -29
89 -3 53 31 55 53 7 99 -39 38 -81 53 -81 29z"/>
<path d="M4878 14563 c-3 -21 -7 -45 -9 -53 -8 -28 53 -24 81 5 l25 27 -33 29
c-44 39 -59 37 -64 -8z"/>
<path d="M4670 14180 c0 -5 5 -10 10 -10 6 0 10 5 10 10 0 6 -4 10 -10 10 -5
0 -10 -4 -10 -10z"/>
<path d="M11948 13639 c-24 -14 -23 -49 1 -49 24 0 45 25 37 45 -6 17 -14 18
-38 4z"/>
<path d="M11932 13054 c-16 -11 -22 -25 -22 -54 0 -26 -6 -42 -17 -48 -13 -8
-11 -11 16 -17 18 -4 37 -3 41 1 12 14 22 121 12 128 -5 3 -18 -2 -30 -10z"/>
<path d="M11940 12876 c0 -21 5 -26 26 -26 21 0 25 4 22 23 -2 14 -11 23 -25
25 -19 3 -23 -1 -23 -22z"/>
<path d="M11854 12778 c-3 -5 1 -24 9 -41 9 -18 18 -40 21 -49 7 -24 35 -12
42 18 4 14 0 34 -9 48 -17 26 -53 40 -63 24z"/>
<path d="M12000 12460 c0 -5 7 -10 15 -10 8 0 15 5 15 10 0 6 -7 10 -15 10 -8
0 -15 -4 -15 -10z"/>
<path d="M12100 11080 c0 -5 9 -10 20 -10 11 0 20 5 20 10 0 6 -9 10 -20 10
-11 0 -20 -4 -20 -10z"/>
<path d="M12020 10799 c-8 -17 -21 -39 -31 -48 -9 -9 -19 -29 -21 -46 -3 -27
-7 -30 -42 -33 -38 -3 -83 -33 -73 -49 3 -4 37 -6 77 -5 64 3 72 6 80 27 5 13
18 28 28 34 21 11 52 78 52 111 0 18 -26 40 -48 40 -5 0 -15 -14 -22 -31z"/>
<path d="M11837 10333 c-13 -12 -7 -54 8 -59 23 -9 65 4 72 23 11 28 -58 59
-80 36z"/>
<path d="M11847 9873 c-26 -26 32 -132 62 -113 19 11 16 65 -4 96 -15 23 -44
32 -58 17z"/>
<path d="M4687 9525 c-23 -48 -22 -54 16 -70 37 -15 57 -5 57 30 0 22 -34 75
-49 75 -4 0 -15 -16 -24 -35z"/>
<path d="M4760 9250 c0 -5 12 -10 28 -10 21 0 24 2 12 10 -20 13 -40 13 -40 0z"/>
<path d="M4933 9173 c-20 -8 -15 -23 7 -23 11 0 20 7 20 15 0 15 -6 17 -27 8z"/>
<path d="M11549 9039 c-34 -34 -9 -59 47 -45 24 6 24 7 9 36 -18 35 -28 37
-56 9z"/>
<path d="M5988 8905 c-12 -14 -26 -25 -32 -25 -6 0 -27 -13 -46 -29 -29 -25
-32 -31 -21 -45 9 -11 30 -16 67 -16 49 0 54 2 54 22 0 12 9 32 21 44 14 15
18 29 13 48 -8 33 -28 33 -56 1z"/>
<path d="M9775 8888 c-16 -5 -41 -13 -54 -16 -13 -4 -30 -16 -37 -27 -11 -18
-9 -23 29 -51 34 -25 55 -33 109 -37 l68 -6 18 38 c20 41 13 75 -13 65 -8 -4
-29 6 -46 20 -33 28 -31 28 -74 14z"/>
<path d="M7288 8732 c-33 -20 -35 -28 -8 -42 28 -15 62 4 58 32 -4 28 -17 31
-50 10z"/>
<path d="M10852 8718 c-6 -8 -7 -19 -2 -28 7 -11 13 -12 35 -2 15 7 25 18 23
25 -6 17 -43 20 -56 5z"/>
<path d="M6415 8710 c-3 -5 3 -10 14 -10 12 0 21 5 21 10 0 6 -6 10 -14 10 -8
0 -18 -4 -21 -10z"/>
<path d="M9454 8695 c-8 -21 14 -45 40 -45 30 1 60 26 53 45 -9 21 -85 21 -93
0z"/>
<path d="M5355 8686 l-30 -13 33 -17 c20 -10 49 -16 74 -14 l42 3 -40 28 c-46
31 -40 30 -79 13z"/>
<path d="M8714 8689 c-7 -12 15 -31 28 -23 4 3 8 12 8 20 0 17 -26 19 -36 3z"/>
<path d="M6160 8680 c-12 -8 -10 -10 8 -10 13 0 20 4 17 10 -7 12 -6 12 -25 0z"/>
<path d="M6305 8660 c-8 -13 4 -57 20 -70 7 -6 19 -8 28 -4 19 7 41 59 32 73
-8 14 -72 14 -80 1z"/>
<path d="M7092 8610 c-21 -28 -30 -66 -14 -58 50 24 62 34 67 49 15 45 -22 52
-53 9z"/>
<path d="M8910 8500 c0 -6 7 -10 15 -10 8 0 15 2 15 4 0 2 -7 6 -15 10 -8 3
-15 1 -15 -4z"/>
</g>
</svg>
